<svg width="652" height="633" viewBox="0 0 652 633" fill="none" xmlns="http://www.w3.org/2000/svg">
<path opacity="0.1" fill-rule="evenodd" clip-rule="evenodd" d="M312.843 24.0115C372.151 25.5475 431.081 3.50952 487.219 22.7184C551.996 44.8835 639.948 72.1017 650.99 139.717C662.996 213.232 564.559 257.363 536.828 326.492C518.249 372.806 536.605 425.738 517.722 471.929C493.017 532.361 476.111 620.23 411.936 632.003C345.31 644.227 311.236 540.343 246.094 521.761C180.045 502.921 99.0883 568.582 44.2994 527.136C-7.96025 487.604 -2.41603 403.926 4.08329 338.69C9.77775 281.532 57.0774 240.431 78.1847 187.015C100.915 129.491 81.7901 48.806 132.568 13.5334C183.039 -21.5256 251.426 22.4209 312.843 24.0115Z" fill="#57CC99"/>
</svg>
